<svg xmlns="http://www.w3.org/2000/svg" width="16" height="16" viewBox="0 0 22 22">
    <path fill="currentColor" stroke="currentColor" stroke-width=".3" d="M20.413 6.002L16 6V1.587C16 1.234 15.71 1 15.41 1c-.155 0-.302.062-.41.173L12.37 4.59c-.078.103-.121.228-.121.358v3.916l-2.497 2.5c-.243.245-.243.64.001.884s.64.244.884 0l2.488-2.493h3.925c.13 0 .255-.042.358-.121L20.829 7c.367-.369.106-1-.416-1h0zM9.572 3.505c.27-.005.54.002.81.021.347.025.616.314.616.663 0 .184-.077.36-.213.487-.135.125-.317.189-.501.175-.178-.013-.356-.02-.536-.02C7.26 4.83 4.936 6.075 3.561 8.15c-1.376 2.074-1.62 4.699-.65 6.99 1.375 3.25 4.85 5.083 8.308 4.382 3.46-.7 5.947-3.74 5.95-7.27 0-.178-.007-.356-.02-.535-.014-.184.05-.366.175-.501.126-.136.303-.213.487-.213.349 0 .637.269.663.616.019.27.026.54.02.81C18.4 17.201 14.465 21.03 9.691 21c-4.785-.03-8.66-3.904-8.69-8.69C.968 7.535 4.797 3.6 9.57 3.505zm.183 4.373c.337.002.61.277.609.614h0v.032c0 .161-.065.315-.18.428-.114.113-.269.176-.43.175h0c-1.72 0-3.113 1.38-3.13 3.095-.017 1.713 1.35 3.12 3.064 3.153 1.713.034 3.134-1.32 3.183-3.033l.002-.089c0-.166.065-.325.182-.442.117-.118.276-.184.443-.184.343-.001.622.275.624.618h0c0 2.422-1.958 4.38-4.374 4.38-2.41 0-4.374-1.963-4.374-4.373 0-2.416 1.959-4.374 4.374-4.374h0zm4.994-4.33V7.25h3.706l-1.63 1.257H13.5V5.174l1.25-1.627z"/>
</svg>
